<svg
   xmlns:dc="http://purl.org/dc/elements/1.1/"
   xmlns:cc="http://creativecommons.org/ns#"
   xmlns:rdf="http://www.w3.org/1999/02/22-rdf-syntax-ns#"
   xmlns:svg="http://www.w3.org/2000/svg"
   xmlns="http://www.w3.org/2000/svg"
   version="1.0"
   width="100%"
   height="100%"
   viewBox="0 0 32 32"
   id="svg2"
   xml:space="preserve"><metadata
     id="metadata62"><rdf:RDF><cc:Work
         rdf:about=""><dc:format>image/svg+xml</dc:format><dc:type
           rdf:resource="http://purl.org/dc/dcmitype/StillImage" /><dc:title></dc:title></cc:Work></rdf:RDF></metadata><defs
     id="defs4" /><g
     transform="matrix(3.0416884,0,0,3.0416884,-0.8105643,5.4506376)"
     id="The_Picture"><path
       d="M 1.54553,0.66329 C 3.62657,0.39702 5.86595,0.41937 7.27152,0.73033 7.6768,3.39358 7.60442,5.96999 7.18467,8.45955 4.68063,8.1556 3.15446,7.9963 0.56358,8.47395 1.41471,5.46061 0.93956,3.50339 0.69865,1.74835 l 0.84688,-1.08506 0,0 z"
       id="_43075032"
       style="fill:#dddddd;stroke:#ffffff;stroke-width:0.10643" /><g
       id="g13"><path
         d="M 1.34235,4.17818 C 1.36091,3.12049 1.37948,2.0628 1.39804,1.00511 c 1.93264,0 3.86527,0 5.79791,0 -0.03712,2.11538 -0.07425,4.23075 -0.11138,6.34613 -1.93264,0 -3.86527,0 -5.79791,0 C 1.30522,6.29356 1.32379,5.23586 1.34235,4.17818 l 0,0 z"
         id="path2193"
         style="fill:#fcf9ea" /><path
         d="M 1.34235,4.17818 C 1.36091,3.12049 1.37948,2.0628 1.39804,1.00511 c 1.93264,0 3.86527,0 5.79791,0 C 7.15882,3.12076 7.12169,5.23642 7.08456,7.35207 6.45828,7.34352 5.82914,7.37021 5.20537,7.3237 5.10221,7.32361 4.95911,7.3432 4.828,7.30804 4.69696,7.28747 4.42098,7.38745 4.23964,7.32385 4.0161,7.31646 3.70269,7.36465 3.44219,7.3486 2.72363,7.35329 2.00517,7.35048 1.28666,7.35124 1.30522,6.29356 1.32379,5.23586 1.34235,4.17818 l 0,0 z M 4.50329,7.22943 C 4.64822,7.04387 4.13212,7.2077 4.45203,7.24185 l 0.05126,-0.01242 0,0 z M 4.74232,7.10005 c -0.10335,-0.14869 -0.18454,0.14164 0,0 l 0,0 z M 4.51253,6.59848 c -0.07836,-0.2529 -0.17312,0.15363 0,0 z M 4.13428,6.50509 c -0.06942,-0.10655 -0.0642,0.10296 0,0 z M 4.36024,6.45221 c -0.04784,-0.09795 -0.10295,0.08934 0,0 z m 0.13237,0 c -0.03838,-0.10071 -0.08231,0.08372 0,0 z M 4.52822,6.27758 c -0.08573,-0.02914 -0.07206,0.0491 0,0 z m 0.16151,-0.0303 c -0.11767,-0.17964 -0.13376,0.19968 0,0 z M 4.4698,6.02913 C 4.62801,6.23036 4.82119,5.91361 4.60121,5.82627 4.7662,5.7913 4.94129,5.66799 4.67181,5.74723 4.52375,5.80175 4.48357,5.89784 4.30302,5.84138 4.30183,5.88827 4.34274,6.07911 4.1856,5.95158 4.03897,5.80329 4.12375,6.21603 4.31537,6.08675 4.36979,6.07495 4.41324,6.03311 4.4698,6.02913 l 0,0 z M 4.37911,5.72068 C 4.31413,5.55387 4.02886,5.83029 4.30824,5.75376 4.33198,5.74639 4.36434,5.74487 4.37911,5.72068 z M 4.65814,5.52762 C 4.8123,5.40693 4.36455,5.49612 4.27696,5.46889 3.86565,5.47085 4.38774,5.67809 4.65814,5.52762 z M 4.72419,2.57568 C 5.02242,2.42642 5.11201,2.06148 4.9659,1.77802 4.86948,1.47362 4.5197,1.39114 4.2413,1.49041 3.99669,1.63458 3.7253,1.92964 3.85228,2.23023 3.89496,2.56549 4.22743,2.74736 4.54404,2.64908 4.60868,2.63863 4.66887,2.61041 4.72419,2.57568 l 0,0 z"
         id="path2191"
         style="fill:#f9e99e" /><path
         d="M 1.34235,4.17818 C 1.36091,3.12049 1.37948,2.0628 1.39804,1.00511 c 1.93264,0 3.86527,0 5.79791,0 C 7.15882,3.12092 7.12168,5.23673 7.08455,7.35254 6.46707,7.34387 5.84696,7.36863 5.23185,7.32311 5.03632,7.38746 4.79213,7.20607 4.57611,7.30612 4.3369,7.37822 4.11151,7.27727 3.8562,7.34169 2.99956,7.35751 2.14316,7.34911 1.28666,7.35124 1.30522,6.29356 1.32379,5.23586 1.34235,4.17818 l 0,0 z m 3.248,3.02414 C 4.77994,7.18296 4.8456,6.94947 4.60327,7.05827 4.52405,7.11791 4.07449,7.17144 4.41636,7.2499 4.47251,7.25333 4.55644,7.26011 4.59035,7.20232 z M 5.1301,7.08683 c -0.06941,-0.10657 -0.0642,0.10294 0,0 z M 3.91553,6.90173 c -0.06942,-0.10657 -0.06421,0.10295 0,0 z m 0.12501,0.01046 c -0.08573,-0.02914 -0.07206,0.0491 0,0 z M 4.80466,6.8629 C 4.91066,6.71347 4.33401,6.89093 4.65673,6.90075 4.70749,6.89682 4.75948,6.8897 4.80466,6.8629 z M 4.55582,6.62235 C 4.59022,6.41603 4.43265,6.32293 4.24725,6.46011 4.20394,6.51869 4.53048,6.74363 4.55582,6.62235 z M 4.76804,6.59764 C 4.8125,6.47663 4.57334,6.66586 4.74061,6.624 L 4.76804,6.59764 z M 4.17162,6.53453 c -0.07337,-0.23443 -0.19293,0.10852 0,0 z M 4.60822,6.32341 C 4.86075,6.25163 4.56899,6.09133 4.44619,6.21897 4.2736,6.19964 4.09551,6.33429 4.36618,6.33458 4.4469,6.33373 4.5275,6.32575 4.60822,6.32341 l 0,0 z M 4.66202,6.10092 C 4.80809,6.02717 4.878,5.8516 4.69263,5.84206 4.78371,5.7801 5.03277,5.64665 4.76926,5.68966 4.64766,5.78968 4.30949,5.7069 4.36096,5.60606 4.52101,5.64594 4.66013,5.70941 4.75026,5.54147 4.88932,5.46486 4.58138,5.39454 4.54434,5.34279 4.3268,5.32209 3.84582,5.52214 4.25548,5.63343 4.08746,5.67364 4.15811,5.80458 4.21134,5.86417 3.93212,5.83015 4.09855,6.20662 4.32082,6.09863 4.43795,6.08102 4.55705,6.17021 4.66202,6.10092 l 0,0 z M 4.52138,4.81279 c -0.09085,-0.11945 -0.20608,0.11407 0,0 z m 0.14561,0 c -0.10812,-0.09676 -0.05512,0.06127 0,0 z M 4.60894,2.84147 C 4.68246,2.66371 4.89002,2.82425 4.97799,2.61622 5.24405,2.43492 5.28925,2.12646 5.18943,1.8436 5.11277,1.60325 5.00734,1.37596 4.77235,1.31176 4.48721,1.20365 4.13747,1.30467 3.91288,1.51394 3.80472,1.62898 3.68208,1.75705 3.60943,1.8926 3.62033,2.20994 3.66754,2.55718 3.92724,2.76931 4.10086,2.68079 4.11729,2.97352 4.32866,2.88204 4.41857,2.92262 4.53251,2.90806 4.60894,2.84147 l 0,0 z"
         id="path2189"
         style="fill:#fcd46b" /><path
         d="M 1.34235,4.17818 C 1.36091,3.12049 1.37948,2.0628 1.39804,1.00511 2.74169,1.0109 4.08657,0.99046 5.42905,1.02651 5.7021,1.0728 6.01356,0.97399 6.30575,1.00556 6.6025,1.00463 6.89922,1.00532 7.19595,1.00511 7.15882,3.12092 7.12168,5.23673 7.08455,7.35254 6.46707,7.34387 5.84696,7.36863 5.23185,7.32311 5.03631,7.38731 4.79219,7.20643 4.57612,7.30583 4.33512,7.36145 4.07673,7.29003 3.8178,7.34265 2.97397,7.35689 2.13036,7.34931 1.28666,7.35124 1.30522,6.29356 1.32379,5.23586 1.34235,4.17818 l 0,0 z m 3.248,3.02414 C 4.77994,7.18296 4.8456,6.94947 4.60327,7.05827 4.52405,7.11791 4.07449,7.17144 4.41636,7.2499 4.47251,7.25333 4.55644,7.26011 4.59035,7.20232 z M 5.1301,7.08683 c -0.06941,-0.10657 -0.0642,0.10294 0,0 z M 3.91553,6.90173 c -0.06942,-0.10657 -0.06421,0.10295 0,0 z m 0.12501,0.01046 c -0.08573,-0.02914 -0.07206,0.0491 0,0 z M 4.80466,6.8629 C 4.91066,6.71347 4.33401,6.89093 4.65673,6.90075 4.70749,6.89682 4.75948,6.8897 4.80466,6.8629 z M 4.55582,6.62235 C 4.59022,6.41603 4.43265,6.32293 4.24725,6.46011 4.20394,6.51869 4.53048,6.74363 4.55582,6.62235 z M 4.76804,6.59764 C 4.8125,6.47663 4.57334,6.66586 4.74061,6.624 L 4.76804,6.59764 z M 4.17162,6.53453 c -0.07337,-0.23443 -0.19293,0.10852 0,0 z M 4.60822,6.32341 C 4.86362,6.2414 4.56126,6.1005 4.43659,6.21657 4.18339,6.17706 4.14724,6.37123 4.41528,6.33359 4.47956,6.32959 4.54389,6.32609 4.60822,6.32341 z M 4.66202,6.10092 C 4.80809,6.02717 4.878,5.8516 4.69263,5.84206 4.78371,5.7801 5.03277,5.64665 4.76926,5.68966 4.64766,5.78968 4.30949,5.7069 4.36096,5.60606 4.52101,5.64594 4.66013,5.70941 4.75026,5.54147 4.88932,5.46486 4.58138,5.39454 4.54434,5.34279 4.3268,5.32209 3.84582,5.52214 4.25548,5.63343 4.08746,5.67364 4.15811,5.80458 4.21134,5.86417 3.93212,5.83015 4.09855,6.20662 4.32082,6.09863 4.43795,6.08102 4.55705,6.17021 4.66202,6.10092 l 0,0 z m -0.505,-0.89149 c -0.09621,-0.10074 -0.06379,0.08801 0,0 z M 4.5334,5.12117 C 4.50437,4.91207 4.4665,5.07417 4.40011,5.1168 4.33993,4.93073 4.01457,5.0645 4.29985,5.13526 4.37278,5.15359 4.47519,5.19432 4.5334,5.12117 l 0,0 z M 4.66212,5.09043 c -0.11799,-0.14796 -0.06572,0.13531 0,0 z M 4.34915,4.8528 C 4.45413,4.70812 4.07088,4.85474 4.2695,4.86538 l 0.04567,-0.01549 0.03398,0.00291 0,0 z M 4.52138,4.81279 c -0.09085,-0.11945 -0.20608,0.11407 0,0 z m 0.22506,-8.3e-4 c -0.13938,-0.16587 -0.23076,0.10494 0,0 z M 4.64829,2.98109 C 4.73552,2.6346 4.72292,3.27126 4.92592,3.0161 5.17648,2.82491 5.40401,2.57847 5.50018,2.27786 5.49137,1.89891 5.3868,1.50444 5.07634,1.26298 4.96596,1.20388 4.87074,1.07245 4.74015,1.06736 4.48091,1.07066 4.20681,1.05685 3.9841,1.22184 3.71524,1.36233 3.49978,1.60759 3.36462,1.86981 3.38004,2.14697 3.36616,2.44126 3.53441,2.67686 3.58753,2.90961 3.97855,3.24234 4.05725,2.88593 4.11968,3.02317 4.43182,2.85634 4.53172,3.06886 4.59957,3.11872 4.64545,3.04289 4.64829,2.98109 z"
         id="path2187"
         style="fill:#efb58b" /><path
         d="M 1.34235,4.17818 C 1.36091,3.12049 1.37948,2.0628 1.39804,1.00511 2.74169,1.0109 4.08657,0.99046 5.42905,1.02651 5.7021,1.0728 6.01356,0.97399 6.30575,1.00556 6.6025,1.00463 6.89922,1.00532 7.19595,1.00511 7.15883,3.12049 7.1217,5.23586 7.08457,7.35124 6.55843,7.34661 6.03113,7.36397 5.50611,7.3343 5.39102,7.32013 5.24762,7.3495 5.11631,7.28291 5.10196,7.44889 4.86567,7.22029 4.7729,7.22627 4.90391,7.05064 4.65578,6.91952 4.54831,7.04999 4.46644,7.09436 4.12119,7.20198 4.29741,7.00385 4.19909,6.9375 4.02404,7.07434 4.10035,6.88715 3.97894,6.75684 3.59136,6.98448 3.82693,7.02229 4.1153,6.80176 4.19252,7.3324 4.47943,7.29836 4.64736,7.39013 4.20555,7.29882 4.14949,7.27075 3.90874,7.42178 3.5619,7.30702 3.28188,7.34952 2.61676,7.35268 1.95173,7.35068 1.28666,7.35124 1.30522,6.29356 1.32379,5.23586 1.34235,4.17818 l 0,0 z M 3.92459,7.1397 c -0.10232,-0.09539 -0.05216,0.09614 0,0 z M 5.15588,7.11396 c 0.04111,-0.21649 -0.24463,0.09243 0,0 z M 4.80178,6.90274 C 4.92826,6.89454 5.12181,6.79828 4.86886,6.78395 4.68593,6.69802 4.38918,6.98753 4.33343,6.74757 4.53536,6.6521 4.85747,6.70326 4.86917,6.45982 5.0206,6.39683 4.36926,6.44687 4.64679,6.34151 4.85389,6.32358 4.5866,6.01654 4.87082,6.09458 5.12018,6.06832 4.66023,5.80674 4.94204,5.69271 4.90458,5.60722 4.56304,5.69111 4.78584,5.56646 4.94572,5.5126 5.10501,5.47948 4.85101,5.39003 4.72146,5.3108 4.43055,5.27966 4.1894,5.38944 4.05604,5.45705 3.76765,5.61352 4.10378,5.59591 4.34039,5.59791 3.92349,5.70581 4.08152,5.82078 3.8444,6.0762 4.33077,6.11968 4.35861,6.18425 4.26874,6.17841 3.79958,6.25001 4.09596,6.30394 4.37502,6.33624 4.17631,6.49385 4.00461,6.43544 3.72284,6.47342 4.21419,6.61224 4.3021,6.58414 4.51395,6.72066 3.87262,6.58117 4.179,6.73483 4.41275,6.68483 4.0621,6.9628 4.32446,6.89154 4.47744,6.92832 4.64724,6.93678 4.80178,6.90274 l 0,0 z M 4.57329,6.5426 C 4.53681,6.41124 4.94851,6.5133 4.63323,6.57198 L 4.60034,6.58442 4.57329,6.5426 l 0,0 0,0 z M 5.08186,6.22139 c -0.0956,-0.01092 0.03972,0.13558 0,0 z M 3.9176,6.02913 c -0.13489,-0.10142 -0.0578,0.09274 0,0 z M 4.01309,5.86765 c -0.12237,-0.10094 -0.12357,0.14607 0,0 z m 0.0032,-0.18226 c -0.09561,-0.10641 -0.10338,0.10344 0,0 z m 1.04575,0 c -0.04785,-0.09795 -0.10295,0.08933 0,0 z M 4.15702,5.20943 c -0.09621,-0.10074 -0.06379,0.08801 0,0 z M 4.62802,5.1481 C 4.74637,5.0217 4.48157,5.06464 4.45834,5.01632 4.47604,5.27196 4.25119,4.86489 4.16436,5.06982 4.26521,5.18027 4.48933,5.19488 4.62802,5.1481 z M 4.78103,5.10365 c -0.08123,-0.11158 -0.12769,0.08983 0,0 z M 4.49784,4.85289 C 4.67026,4.8991 4.85161,4.75012 4.57947,4.7635 4.48174,4.72517 4.09552,4.80553 4.27328,4.87021 4.34766,4.85876 4.42286,4.85523 4.49784,4.85289 z M 4.64829,2.98109 C 4.73552,2.6346 4.72292,3.27126 4.92592,3.0161 5.17648,2.82491 5.40401,2.57847 5.50018,2.27786 5.49137,1.89891 5.3868,1.50444 5.07634,1.26298 4.96596,1.20388 4.87074,1.07246 4.74015,1.06736 4.48091,1.07066 4.20681,1.05685 3.9841,1.22184 3.71524,1.36233 3.49978,1.60759 3.36462,1.86981 3.38004,2.14697 3.36616,2.44126 3.53441,2.67686 3.58753,2.90961 3.97855,3.24234 4.05725,2.88593 4.11968,3.02317 4.43182,2.85634 4.53172,3.06886 4.59957,3.11872 4.64545,3.04289 4.64829,2.98109 l 0,0 z M 4.638,7.21904 c 0.0815,-0.08826 0.00564,0.09214 0,0 z"
         id="path2185"
         style="fill:#f4a256" /><path
         d="M 1.34235,4.17818 C 1.36091,3.12049 1.37948,2.0628 1.39804,1.00511 2.18785,1.00559 2.97767,1.00606 3.76748,1.00654 3.50374,1.21458 3.2832,1.47447 3.10391,1.75333 3.02729,2.09609 3.18923,2.44575 3.31909,2.7518 3.37529,3.14931 3.77495,3.20407 4.07495,3.02753 4.27985,2.84778 4.4525,3.05495 4.60787,3.1296 4.70478,3.02523 4.68308,2.96531 4.7893,3.10211 5.15477,3.25847 5.39929,2.86213 5.60545,2.62941 5.92438,2.36193 5.72124,1.94271 5.65365,1.61393 5.56799,1.41493 5.27338,1.07692 5.69907,1.07228 5.95683,0.95402 6.26406,1.02706 6.54395,1.00438 6.76365,1.06862 7.27742,0.84231 7.19247,1.20343 7.1565,3.2527 7.12054,5.30197 7.08457,7.35124 6.46236,7.34851 5.8354,7.3649 5.21754,7.31918 5.11354,7.20401 5.0006,7.43582 4.86023,7.25513 4.67969,7.17094 5.00777,7.11735 4.80294,6.99816 4.7855,6.85482 5.21099,6.82064 4.90157,6.74875 4.74922,6.68467 4.4024,6.94205 4.38837,6.73997 4.61605,6.68411 4.91951,6.69873 4.92009,6.43469 4.72809,6.43238 4.66363,6.329 4.84571,6.25314 4.54799,6.02881 5.16186,6.19031 4.95268,5.92743 4.75133,5.71344 5.30775,5.71146 4.96108,5.58345 4.91138,5.50573 5.13994,5.50091 4.95649,5.39988 4.72502,5.20038 4.41018,5.33532 4.14071,5.36396 3.91707,5.29849 3.68818,5.50815 3.92435,5.67534 3.9164,5.8245 3.96515,6.00886 3.83396,6.02321 3.8824,6.16726 4.2813,6.04234 4.21956,6.18554 4.06491,6.11878 3.72745,6.31836 4.05357,6.31691 4.3726,6.37349 3.95892,6.41532 3.8949,6.45933 3.99217,6.55911 4.2369,6.64306 3.94196,6.6655 3.80335,6.74791 4.38737,6.71461 4.11474,6.84306 3.9789,6.73584 3.56598,7.0267 3.83016,6.99661 4.18855,6.83917 4.26126,7.48133 3.84086,7.34106 2.98929,7.3618 2.13808,7.34668 1.28666,7.35124 1.30522,6.29356 1.32379,5.23586 1.34235,4.17818 l 0,0 z m 2.59522,2.9763 c -0.08008,-0.19934 -0.13386,0.14853 0,0 z M 5.17111,7.10194 C 5.25285,6.92653 4.89038,7.19547 5.1535,7.1121 l 0.01501,-0.00867 0.0026,-0.00149 0,0 z M 5.56832,7.00749 c -0.01163,-0.10687 -0.07611,0.10375 0,0 z M 3.82855,6.58423 c -0.06009,-0.17344 -0.1369,0.10408 0,0 z M 5.19337,6.24067 C 5.21152,6.0546 4.84224,6.3645 5.1317,6.26988 l 0.02885,-0.01862 0.03282,-0.01059 0,0 z M 4.23521,5.24937 C 4.38531,5.19952 4.89514,5.26748 4.74711,5.02826 4.62901,4.96554 4.07562,4.99521 4.41213,4.8944 4.53992,4.92475 4.99698,4.82904 4.67422,4.73416 4.46537,4.65874 4.00892,4.78182 4.00083,4.9002 4.31464,4.90782 3.93122,5.17169 3.92521,5.20542 c 0.09183,0.02801 0.22016,0.12399 0.31,0.04395 l 0,0 z M 4.2694,7.31158 c 0.08788,-0.14523 0.19491,0.15987 0,0 z M 4.49053,7.3248 c -0.04773,-0.10805 0.16599,0.09772 0,0 z M 4.25628,7.09635 C 4.35523,7.00393 4.25508,6.83317 4.47716,6.91947 4.74553,6.92476 4.32138,7.1303 4.25628,7.09635 z M 4.13254,6.94967 c 0.06157,-0.12328 0.08222,0.06473 0,0 z m 0.09255,-0.3388 c 0.04483,-0.10844 0.2169,0.12383 0,0 z M 4.59712,6.53153 c 0.03895,-0.09742 0.07082,0.08426 0,0 z M 4.77221,5.60606 c 0.15734,-0.12108 0.07464,0.11757 0,0 z M 3.90087,5.47385 c 0.07955,-0.12067 0.12781,0.10184 0,0 z m 1.4414,-4.44229 c 0.08959,-0.11886 0.01834,0.10439 0,0 z"
         id="path2183"
         style="fill:#fa8b35" /><path
         d="M 1.34235,4.17818 C 1.36091,3.12049 1.37948,2.0628 1.39804,1.00511 2.0599,1.01064 2.72307,0.99087 3.38377,1.02194 3.361,1.17543 3.05382,1.41106 2.92112,1.58684 2.83949,1.65193 2.75123,1.715 2.81676,1.82482 2.88503,2.13875 2.76142,2.49599 2.96076,2.77356 3.01356,2.94139 3.09175,3.34374 3.32031,3.12164 3.53729,3.30077 3.78225,3.11243 4.01962,3.09483 4.31921,2.80339 4.54079,3.25727 4.86628,3.15414 5.16135,3.1291 5.52651,3.31174 5.74852,3.01769 5.85294,2.83246 5.95125,2.64163 6.09205,2.47835 6.03752,2.0262 6.00573,1.53787 5.69971,1.17781 5.80105,0.87397 6.20888,1.04537 6.46125,1.0131 6.64105,1.15098 6.80883,0.92525 6.99958,1.058 7.08452,0.98733 7.25188,0.96678 7.19354,1.14257 7.15722,3.21213 7.12089,5.28169 7.08457,7.35124 6.55814,7.34613 6.03036,7.36495 5.50518,7.33407 5.39842,7.30614 5.24148,7.38772 5.12265,7.25443 5.09055,7.43686 4.84981,7.26173 4.78415,7.18798 4.83952,7.11545 4.94451,7.16704 4.81979,7.02935 4.68954,6.85254 5.23773,6.84806 4.93973,6.76495 4.74169,6.65439 4.44962,6.94946 4.36059,6.75689 4.48703,6.65627 4.98212,6.73122 4.8513,6.52784 5.13017,6.32839 4.51019,6.49088 4.79385,6.28436 4.9924,6.28122 4.55819,6.09136 4.87266,6.10886 5.20539,6.09969 4.70104,5.76296 5.02945,5.72269 5.26665,5.66028 4.72751,5.55863 5.03669,5.51508 5.02976,5.41548 4.81321,5.28949 4.69097,5.28848 4.47984,5.30477 4.26911,5.33754 4.06331,5.37912 3.87576,5.28778 3.6977,5.5322 3.90029,5.62261 3.98902,5.76587 3.86401,5.88765 3.93598,5.99404 3.70525,5.93905 3.9136,6.17828 4.0359,6.08442 4.13165,6.09657 4.41398,6.19462 4.14215,6.18738 3.94461,6.15033 3.75078,6.33106 4.05357,6.31691 4.3566,6.35413 4.07347,6.44318 3.9191,6.42066 3.77572,6.52677 4.32929,6.60982 3.99737,6.64902 3.6315,6.74569 4.43996,6.69467 4.11474,6.84306 3.99195,6.78995 3.58024,6.92506 3.78913,7.03258 4.00034,6.79784 4.3501,7.27283 4.01113,7.33642 3.10302,7.3639 2.19479,7.34638 1.28666,7.35124 1.30522,6.29356 1.32379,5.23586 1.34235,4.17818 l 0,0 z m 2.59522,2.9763 c -0.09907,-0.20192 -0.13692,0.15135 0,0 z M 5.17111,7.10194 C 5.28953,6.94878 4.89073,7.12818 5.12347,7.12945 l 0.04764,-0.02751 0,0 z M 5.56832,7.00749 c 7.1e-4,-0.10639 -0.09722,0.09909 0,0 z M 3.82855,6.58423 c -0.07877,-0.17578 -0.14044,0.10316 0,0 z M 5.19337,6.24067 C 5.3034,6.13602 4.86727,6.19846 5.07398,6.30788 5.11645,6.29003 5.14564,6.24682 5.19337,6.24067 z M 4.23574,5.24971 C 4.4064,5.19389 4.79134,5.28289 4.80789,5.06042 4.70188,4.91016 4.34298,5.01986 4.31882,4.92939 4.44217,4.87403 4.932,4.87764 4.8642,4.77779 4.62337,4.63312 4.30641,4.72294 4.05234,4.80938 3.87517,4.92823 4.04204,4.91018 4.13065,4.94724 4.00421,5.0273 4.01502,5.05243 4.03804,5.14942 3.67592,5.10745 4.16042,5.36661 4.23574,5.24971 z M 4.26996,7.3131 C 4.29358,7.20495 4.50857,7.37597 4.292,7.33785 L 4.26996,7.3131 l 0,0 z m 0.23381,0.0117 c 0.0098,-0.09348 0.11538,0.09446 0,0 z M 4.25628,7.09635 C 4.40828,7.02852 4.18621,6.85144 4.41336,6.92287 4.80625,6.88792 4.33034,7.13347 4.25628,7.09635 z M 4.13254,6.94967 c 0.08674,-0.12498 0.07262,0.06973 0,0 z M 4.22509,6.61087 C 4.2607,6.52003 4.41689,6.67783 4.25186,6.62953 L 4.22509,6.61087 z M 4.59712,6.53153 c 0.04192,-0.1007 0.07937,0.08373 0,0 z M 4.77221,5.60606 c 0.17182,-0.11048 0.05862,0.11669 0,0 z M 3.90087,5.47385 c 0.08514,-0.11159 0.12454,0.08982 0,0 z"
         id="path2181"
         style="fill:#d77349" /><path
         d="M 1.34234,4.17849 C 1.36091,3.12069 1.37947,2.06291 1.39804,1.00511 1.96826,1.01355 2.54189,0.98357 3.10929,1.02935 3.12493,1.04596 3.48747,0.95522 3.41305,1.05573 3.19583,1.26437 3.02242,1.51297 2.79006,1.70584 2.88659,2.0075 2.78747,2.34086 2.89011,2.63721 3.02317,2.84495 3.03509,3.34605 3.36273,3.13212 3.56018,3.30887 3.79781,3.09417 4.01962,3.09483 4.31921,2.80339 4.54079,3.25727 4.86628,3.15414 5.16135,3.1291 5.52651,3.31174 5.74852,3.01769 5.85295,2.83246 5.95125,2.64163 6.09205,2.47835 6.03752,2.0262 6.00573,1.53787 5.69971,1.17781 5.80105,0.87397 6.20888,1.04537 6.46125,1.0131 6.64105,1.15098 6.80883,0.92525 6.99958,1.058 7.08452,0.98733 7.25189,0.96678 7.19354,1.14258 7.15722,3.21214 7.12089,5.28169 7.08457,7.35124 6.5687,7.34276 6.04847,7.37327 5.53628,7.3248 5.47787,7.29042 5.24421,7.41579 5.14385,7.2419 5.02786,7.20308 5.1156,7.45891 5.00324,7.31185 4.96925,7.2133 4.69991,7.25384 4.91499,7.13412 4.73428,6.92135 5.06561,6.94064 5.08273,6.78289 4.98427,6.67898 4.83557,6.5326 4.99113,6.44205 4.92031,6.34602 4.64132,6.37802 4.90918,6.29527 5.08062,6.41868 5.43245,6.21695 5.13559,6.08014 4.92368,5.95629 4.98634,5.67722 5.24228,5.6599 5.27087,5.57385 4.9346,5.6449 5.11524,5.4541 5.00531,5.38547 4.76876,5.27664 4.65022,5.22264 4.76635,5.22177 5.02384,5.05778 4.78024,4.99863 4.63591,4.98006 4.26892,4.89425 4.63816,4.90112 4.9059,4.97095 5.0323,4.77075 4.73047,4.70194 4.49537,4.66187 4.15524,4.69917 3.96496,4.83924 3.69204,4.97004 4.34032,4.94977 4.01007,4.98872 3.86578,5.07234 3.68225,5.22751 3.91536,5.28887 3.82797,5.41582 3.5158,5.59308 3.84937,5.61154 3.95848,5.72955 3.48608,5.67472 3.77223,5.75388 3.92885,5.8602 3.7132,6.04401 3.83047,6.18936 3.69634,6.1974 3.62873,6.3091 3.80648,6.28813 4.01473,6.41194 3.56422,6.53948 3.78684,6.69151 3.82504,6.77628 4.34884,6.74524 4.03874,6.82617 3.84035,6.68828 3.46334,7.02742 3.7777,7.08599 3.52999,7.23045 4.31861,7.28136 3.9825,7.33651 3.08378,7.35732 2.18524,7.34847 1.28665,7.35185 1.30521,6.29407 1.32378,5.23627 1.34234,4.17849 l 0,0 z m 2.11183,2.98915 c 0.21614,-0.31387 -0.32006,0.18251 0,0 z M 5.24296,7.10265 C 5.43675,7.03785 5.31179,7.02727 5.17938,7.02336 4.88948,7.03164 5.05378,7.26796 5.24296,7.10265 z M 5.5948,7.00713 c -0.08995,-0.13347 -0.10838,0.16557 0,0 z M 5.30035,6.5507 c -0.04041,-0.36434 -0.15917,0.09916 0,0 z M 3.72367,6.40812 c -0.00868,-0.24734 -0.11454,0.15983 0,0 z M 3.61446,5.95422 c -0.05985,-0.15233 -0.10816,0.09008 0,0 z M 4.2789,7.31525 c 0.15115,-0.10587 0.08961,0.10511 0,0 l 0,0 z M 4.50377,7.3248 c 0.0098,-0.09348 0.11538,0.09446 0,0 z M 4.04284,7.1896 C 3.84659,7.13207 3.90367,6.86 4.06054,7.09214 4.14074,7.1026 4.14206,7.28118 4.04284,7.1896 z M 4.40716,6.79596 c 0.00179,-0.2136 0.14819,0.10868 0,0 z M 4.76215,6.69873 c 0.17219,-0.11687 0.2059,0.15206 0,0 z M 3.87371,6.64392 C 3.79913,6.49406 4.1703,6.58905 3.91416,6.64293 l -0.04045,9.9e-4 0,0 z m 0.0908,-0.27104 c 0.05129,-0.09795 0.09982,0.08934 0,0 z M 4.90871,6.20265 C 4.90664,6.00775 5.26751,6.14234 4.9836,6.22481 4.95789,6.25263 4.91996,6.22865 4.90871,6.20265 z M 3.94176,6.16135 c 0.22768,-0.10795 0.11384,0.10367 0,0 z M 3.95734,5.28832 c 0.12251,-0.05955 0.03594,0.10054 0,0 z M 4.44732,5.26231 c 0.09539,-0.09155 0.12052,0.10058 0,0 z"
         id="path2179"
         style="fill:#ee712c" /><path
         d="m 1.34234,4.17849 c 0.01857,-1.0578 0.03713,-2.11558 0.0557,-3.17338 0.56519,0 1.13039,0 1.69559,0 C 2.94017,1.25367 2.67997,1.42599 2.50224,1.64717 2.44361,2.03711 2.43867,2.43584 2.52448,2.81887 2.44854,3.16366 2.88239,3.25668 3.13723,3.25834 3.29619,3.19951 3.31987,3.08999 3.43718,3.24413 3.65393,3.21812 3.87188,3.15348 4.11326,3.14169 4.42889,3.05576 4.7454,3.24422 5.07447,3.19489 5.37661,3.19171 5.67817,3.21528 5.96014,3.30528 6.28621,3.20859 6.25168,2.79084 6.44098,2.56449 6.42169,2.26383 6.43019,1.94107 6.30892,1.65959 6.24421,1.43844 6.05012,1.18801 6.02031,1.01257 6.25751,0.95282 6.47549,1.05815 6.66554,1.11825 6.78403,0.88148 7.0755,1.17359 7.19256,1.19814 7.15657,3.24917 7.12057,5.3002 7.08457,7.35124 6.5687,7.34276 6.04847,7.37327 5.53628,7.3248 5.47176,7.29736 5.24049,7.40438 5.12733,7.24173 5.03309,7.25025 5.07379,7.42742 4.99732,7.27678 4.88192,7.24011 4.74617,7.22867 4.91499,7.13412 4.73428,6.92135 5.06561,6.94064 5.08273,6.78289 4.98427,6.67898 4.83557,6.5326 4.99113,6.44205 4.92031,6.34602 4.64132,6.37802 4.90918,6.29527 5.08062,6.41868 5.43245,6.21695 5.13559,6.08014 4.92368,5.95629 4.98634,5.67722 5.24228,5.6599 5.27087,5.57385 4.9346,5.6449 5.11524,5.4541 5.02278,5.39281 4.74953,5.28702 4.69917,5.20152 4.91189,5.21012 4.93513,4.96849 4.72304,4.9636 4.65944,4.84165 5.10621,4.93233 4.89353,4.74371 4.64119,4.59752 4.33334,4.72086 4.05529,4.75889 3.78788,4.78759 4.03303,5.1011 3.78212,5.1799 3.79445,5.25658 4.0168,5.26581 3.82684,5.3742 3.78276,5.47521 3.55342,5.58704 3.8052,5.58883 4.06066,5.70794 3.46175,5.67961 3.77223,5.75388 3.92885,5.8602 3.7132,6.04401 3.83047,6.18936 3.69634,6.1974 3.62873,6.3091 3.80648,6.28813 4.01473,6.41194 3.56422,6.53948 3.78684,6.69151 3.82504,6.77628 4.34884,6.74524 4.03874,6.82617 3.84035,6.68828 3.46334,7.02742 3.7777,7.08599 3.52999,7.23045 4.31861,7.28136 3.9825,7.33651 3.08378,7.35732 2.18524,7.34847 1.28665,7.35185 1.30521,6.29407 1.32378,5.23627 1.34234,4.17849 l 0,0 z m 2.11183,2.98915 c 0.21614,-0.31387 -0.32006,0.18251 0,0 z M 5.24296,7.10265 C 5.43675,7.03785 5.31179,7.02727 5.17938,7.02336 4.88948,7.03164 5.05378,7.26796 5.24296,7.10265 z M 5.5948,7.00713 c -0.08995,-0.13347 -0.10838,0.16557 0,0 z M 5.30035,6.5507 c -0.04041,-0.36434 -0.15917,0.09916 0,0 z M 3.72367,6.40812 c -0.00868,-0.24734 -0.11454,0.15983 0,0 z M 3.61446,5.95422 c -0.05985,-0.15233 -0.10816,0.09008 0,0 z M 6.39955,1.12846 C 6.31216,0.88191 6.14112,1.30883 6.38399,1.16415 l 0.01556,-0.03569 0,0 z M 4.29891,7.30729 c 0.1361,-0.02338 0.0209,0.0434 0,0 z M 4.04284,7.1896 C 3.84659,7.13207 3.90367,6.86 4.06054,7.09214 4.14074,7.1026 4.14206,7.28118 4.04284,7.1896 z M 4.40716,6.79596 c 0.00179,-0.2136 0.14819,0.10868 0,0 z M 4.76215,6.69873 c 0.17219,-0.11687 0.2059,0.15206 0,0 z M 3.87371,6.64392 C 3.79913,6.49406 4.1703,6.58905 3.91416,6.64293 l -0.04045,9.9e-4 0,0 z m 0.0908,-0.27104 c 0.05129,-0.09795 0.09982,0.08934 0,0 z M 4.90871,6.20265 C 4.90664,6.00775 5.26751,6.14234 4.9836,6.22481 4.95789,6.25263 4.91996,6.22865 4.90871,6.20265 z M 3.955,6.16135 c 0.15351,-0.10326 0.12412,0.09428 0,0 z M 3.95734,5.28832 c 0.12251,-0.05955 0.03594,0.10054 0,0 z"
         id="path2177"
         style="fill:#cc5627" /><path
         d="M 1.34234,4.17861 C 1.36091,3.12077 1.37947,2.06295 1.39804,1.00511 1.78266,1.01012 2.16885,0.99263 2.55216,1.01861 2.58892,1.23711 2.10475,1.36393 2.04476,1.62636 2.12082,1.86548 2.07034,2.0693 2.1797,2.31758 2.16624,2.44171 2.37137,2.3553 2.34865,2.54387 2.46242,2.82277 2.51932,3.17977 2.87971,3.22601 3.1102,3.37093 3.30276,3.0827 3.46441,3.23273 3.70837,3.24246 3.92057,3.12765 4.18603,3.12319 4.50649,3.13493 4.84489,3.19537 5.1731,3.2084 5.45288,3.21401 5.73286,3.23497 6.00355,3.29692 6.26912,3.1625 6.24829,2.79846 6.48104,2.67062 6.60747,2.44173 6.69948,2.16287 6.7073,1.88782 6.72704,1.76705 6.92209,1.6833 6.72267,1.60743 6.6747,1.44378 6.61582,1.02602 6.94134,1.14147 7.05655,1.26087 7.26139,1.11225 7.19001,1.34386 7.15486,3.34632 7.11972,5.34879 7.08457,7.35124 6.57147,7.3449 6.05592,7.36727 5.54506,7.32808 5.50902,7.20988 5.24336,7.45983 5.19135,7.2504 5.0324,7.23011 4.84102,7.27549 4.92513,7.06074 4.84118,6.92914 5.21072,6.75801 5.25202,6.92817 5.37115,6.80996 4.96784,6.7907 5.09452,6.6439 4.90983,6.62255 4.93189,6.50796 5.04673,6.45516 4.84169,6.31812 5.58151,6.27057 5.22669,6.13653 5.10927,6.01565 4.8756,5.73877 5.1973,5.71871 5.39238,5.55698 5.01311,5.60984 5.14452,5.40206 4.87687,5.42839 5.07482,5.15254 5.08139,5.0701 4.83101,4.96462 5.14341,4.75634 4.87744,4.66699 4.59767,4.58669 4.30183,4.72363 4.01738,4.74522 3.70828,4.72659 3.85244,5.1811 3.60013,5.26231 3.65761,5.28765 3.94801,5.20342 3.78667,5.38956 3.60187,5.45579 3.58861,5.64747 3.81571,5.63145 3.69582,5.63294 3.50245,5.77858 3.75264,5.77127 3.87635,5.92467 3.72249,5.94333 3.60065,5.89939 3.41487,5.97287 3.78524,5.96353 3.63142,6.11329 3.78628,6.02181 3.89926,6.19844 3.69722,6.22255 3.60514,6.33272 3.64198,6.5414 3.78576,6.4378 3.75941,6.52464 3.61883,6.57629 3.76604,6.67415 3.82195,6.86229 3.53886,6.84507 3.59837,7.05624 3.48345,7.10064 3.13531,7.10242 3.38994,7.21525 3.52308,7.1807 3.76112,6.99772 3.69843,7.18815 3.86036,7.20023 4.27282,7.37628 3.87302,7.33816 3.01079,7.35623 2.14875,7.34864 1.28664,7.3521 1.30521,6.29427 1.32378,5.23644 1.34234,4.17861 l 0,0 z m 4.00908,3.11975 c -0.03838,-0.10071 -0.08232,0.08373 0,0 z M 5.18898,7.14257 C 5.3642,7.10233 5.4662,6.99579 5.2086,7.01926 5.01617,6.92647 4.90291,7.26872 5.1422,7.16269 l 0.04678,-0.02012 0,0 z M 5.60317,7.00058 c -0.11052,-0.18539 -0.17908,0.20661 0,0 z M 5.33376,6.79596 c 7.1e-4,-0.1064 -0.09721,0.09908 0,0 z M 3.64237,6.68843 c 0.0171,-0.11733 -0.17226,0.10951 0,0 z m 1.683,-0.16856 C 5.34891,6.25493 4.96727,6.57294 5.26149,6.60147 5.31343,6.63134 5.33379,6.55051 5.32537,6.51987 z M 3.56623,5.68539 c -0.09561,-0.10641 -0.10338,0.10344 0,0 z M 5.00679,7.3248 c 0.04191,-0.10071 0.07937,0.08373 0,0 z M 4.29891,7.30729 c 0.1361,-0.02338 0.0209,0.0434 0,0 z M 3.95601,7.09135 c -0.13551,-0.22785 0.19901,0.14796 0,0 l 0,0 z M 4.08947,6.79596 c 0.00301,-0.1064 0.09374,0.09908 0,0 z M 3.88459,6.77844 c 0.13611,-0.02337 0.02091,0.0434 0,0 z M 3.88092,6.61087 c 0.11667,-0.09784 0.01202,0.08945 0,0 z M 4.93426,6.17765 c 0.18364,-0.20765 0.06729,0.13693 0,0 z M 4.89,5.23518 c 0.02062,-0.28129 0.14041,0.11935 0,0 l 0,0 z"
         id="path2175"
         style="fill:#cd4d14" /><path
         d="M 1.34234,4.1787 C 1.36091,3.12083 1.37947,2.06298 1.39804,1.00511 1.78266,1.01012 2.16885,0.99263 2.55216,1.01861 2.58806,1.23425 2.11365,1.36415 2.04504,1.61949 1.9982,1.9114 1.96787,2.21838 1.87729,2.50436 1.89689,2.74471 1.70011,3.24152 2.1119,3.17873 2.40471,3.16569 2.70441,3.17383 2.97571,3.29002 3.25808,3.25821 3.5252,3.2547 3.80632,3.2581 3.91588,3.3624 4.01701,3.42522 4.15904,3.33207 4.44114,3.39775 4.70843,3.30033 4.98434,3.23231 5.27073,3.29 5.58733,3.16905 5.85158,3.33312 6.17615,3.32352 6.49188,3.23967 6.82169,3.28749 6.92738,3.23677 6.93848,3.03504 6.99094,2.94024 6.91215,2.85148 7.11868,2.59031 6.96803,2.4278 6.96738,2.15621 6.80231,1.90425 6.83414,1.64068 6.67668,1.51025 6.56602,1.08286 6.90996,1.12209 6.98253,1.28824 7.25858,1.09437 7.19053,1.31381 7.15521,3.3263 7.11989,5.33877 7.08457,7.35124 6.57147,7.3449 6.05592,7.36727 5.54506,7.32808 5.50902,7.20988 5.24336,7.45983 5.19135,7.2504 5.0324,7.23011 4.84102,7.27549 4.92513,7.06074 4.84118,6.92914 5.21072,6.75801 5.25202,6.92817 5.37115,6.80996 4.96784,6.7907 5.09452,6.6439 4.90983,6.62255 4.93189,6.50796 5.04673,6.45516 4.84169,6.31812 5.58151,6.27057 5.22669,6.13653 5.10927,6.01565 4.8756,5.73877 5.1973,5.71871 5.39238,5.55698 5.01311,5.60984 5.14452,5.40206 4.7837,5.39049 5.28182,5.03847 4.96456,4.93294 5.13221,4.6023 4.58187,4.61074 4.36803,4.68484 4.09703,4.73163 3.74447,4.70715 3.768,5.07833 3.6735,5.21197 3.51772,5.32339 3.7655,5.25484 4.02319,5.32662 3.40065,5.55814 3.72647,5.60606 4.00564,5.62813 3.42694,5.70142 3.6937,5.76471 3.87768,5.76652 3.78292,6.02289 3.63899,5.89588 3.36975,5.94436 3.7801,5.95736 3.62413,6.09166 3.66124,6.10081 3.9185,6.09104 3.77245,6.18778 3.59977,6.20435 3.60832,6.57398 3.78576,6.4378 3.75941,6.52464 3.61883,6.57629 3.76604,6.67415 3.82195,6.86229 3.53886,6.84507 3.59837,7.05624 3.48345,7.10064 3.13531,7.10242 3.38994,7.21525 3.52308,7.1807 3.76112,6.99772 3.69843,7.18815 3.86236,7.19917 4.24147,7.3642 3.86444,7.33561 3.00508,7.35692 2.14588,7.3485 1.28664,7.35228 1.30521,6.29442 1.32377,5.23655 1.34234,4.1787 l 0,0 z m 4.00908,3.11966 c -0.03838,-0.10071 -0.08232,0.08373 0,0 z M 5.18898,7.14257 C 5.3642,7.10233 5.4662,6.99579 5.2086,7.01926 5.01617,6.92647 4.90291,7.26872 5.1422,7.16269 l 0.04678,-0.02012 0,0 z M 5.60317,7.00058 c -0.11052,-0.18539 -0.17908,0.20661 0,0 z M 5.33376,6.79596 c 7.1e-4,-0.1064 -0.09721,0.09908 0,0 z M 3.64237,6.68843 c 0.0171,-0.11733 -0.17226,0.10951 0,0 z m 1.683,-0.16856 C 5.34891,6.25493 4.96727,6.57294 5.26149,6.60147 5.31343,6.63134 5.33379,6.55051 5.32537,6.51987 z M 3.56623,5.68539 c -0.09561,-0.10641 -0.10338,0.10344 0,0 z m 0.38978,1.40596 c -0.13551,-0.22785 0.19901,0.14796 0,0 l 0,0 z M 4.08947,6.79596 c 0.00301,-0.1064 0.09374,0.09908 0,0 z M 3.88459,6.77844 c 0.13611,-0.02337 0.02091,0.0434 0,0 z M 3.88092,6.61087 c 0.11667,-0.09784 0.01202,0.08945 0,0 z M 4.93406,6.18871 c 0.17207,-0.21146 0.08755,0.09722 0,0 z M 4.89,5.23518 c 0.02062,-0.28129 0.14041,0.11935 0,0 l 0,0 z"
         id="path2173"
         style="fill:#b8461d" /><path
         d="M 1.34235,4.17818 C 1.36091,3.12049 1.37948,2.0628 1.39804,1.00511 1.57659,1.01604 1.77521,0.9781 1.93863,1.0342 2.0299,1.03876 2.11572,0.97025 1.99582,1.11093 1.8631,1.28793 1.51454,1.35562 1.65119,1.66388 1.66902,1.93607 1.61542,2.2597 1.72744,2.47129 1.72769,2.69588 1.71195,3.2106 2.05368,3.17753 2.36565,3.16365 2.68623,3.16482 2.97571,3.29002 3.25808,3.25821 3.5252,3.2547 3.80632,3.2581 3.91588,3.3624 4.01701,3.42522 4.15904,3.33207 4.44114,3.39775 4.70843,3.30033 4.98434,3.23231 5.27073,3.29 5.58733,3.16905 5.85158,3.33312 6.17615,3.32352 6.49188,3.23967 6.82169,3.28749 6.93502,3.18058 6.99678,2.93333 7.13676,2.81836 7.17234,3.51657 7.13039,4.21951 7.12724,4.9197 7.11303,5.73021 7.09879,6.54073 7.08457,7.35124 6.58584,7.34527 6.08524,7.36667 5.58814,7.33345 5.52171,7.19489 4.88875,7.27692 5.27328,7.12325 5.62365,6.99555 5.05391,6.9487 4.95721,7.04687 4.88442,6.94361 5.10783,6.92347 5.14806,6.88694 5.28251,7.12967 5.51816,6.61046 5.19413,6.76664 5.00644,6.77442 5.21321,6.53933 5.32544,6.609 5.40062,6.42761 5.30392,6.38399 5.14483,6.42097 4.93262,6.38176 5.38279,6.22658 5.45869,6.33464 5.53001,6.15708 5.36246,6.14329 5.2217,6.09153 5.18694,5.96455 5.25697,5.80548 5.0768,5.86456 5.00581,5.74147 5.3569,5.76308 5.31563,5.56639 5.37707,5.41775 5.09559,5.65718 5.22171,5.41651 5.26082,5.2993 4.91379,5.3185 5.12207,5.179 5.25735,5.10681 5.08912,4.92489 5.13453,4.82114 4.93716,4.57897 4.62542,4.61434 4.34718,4.67724 4.09147,4.73396 3.67747,4.67425 3.70457,5.02926 3.55616,5.0788 3.55387,5.1351 3.61403,5.2027 3.37485,5.35829 3.97439,5.36258 3.65348,5.41889 3.59355,5.60712 3.46411,5.67778 3.31536,5.55646 3.33475,5.70649 3.85779,5.80248 3.51389,5.93127 3.61153,6.0207 3.5843,6.20064 3.78283,6.13401 3.64399,6.26798 3.45215,6.34045 3.65481,6.51565 3.55314,6.55276 3.40703,6.84047 3.65896,6.73269 3.78037,6.57215 3.78225,6.89863 3.61817,6.83577 3.58767,6.94499 3.30677,6.91066 3.54335,6.96427 3.75482,7.15079 2.98993,7.00232 3.35462,7.22903 3.55121,7.12225 3.91047,7.24407 4.04048,7.32424 3.74823,7.40203 3.4461,7.2903 3.17896,7.33991 2.54816,7.35965 1.91741,7.3482 1.28666,7.35124 1.30522,6.29356 1.32379,5.23586 1.34235,4.17818 l 0,0 z M 3.4585,7.29836 c -0.06941,-0.10656 -0.0642,0.10295 0,0 z M 5.70928,7.27192 c -0.09561,-0.10641 -0.10337,0.10344 0,0 z M 5.60294,7.04054 c 0.04581,-0.35226 -0.29692,0.1799 0,0 z M 5.54643,6.83484 c 0.07557,-0.1367 -0.21936,0.1228 0,0 z m 0.14381,0.014 c -0.06941,-0.10656 -0.0642,0.10295 0,0 z M 5.59455,6.26712 c -0.06941,-0.10657 -0.0642,0.10294 0,0 z m -0.35182,1.0643 c 0.24129,-0.07344 0.14063,0.07825 0,0 z M 4.93772,7.1873 c 0.16422,-0.04494 -0.01733,0.09896 0,0 z M 5.06185,6.56899 c 0.0274,-0.09375 0.01445,0.11478 0,0 z M 4.99653,4.89212 c 0.10567,-0.0954 0.04879,0.09613 0,0 z M 7.1281,2.6728 c 0.01168,-0.12576 0.07196,0.07838 0,0 z M 7.14492,2.52334 c 0.02739,-0.09377 0.01445,0.11478 0,0 z M 7.15049,2.20603 c 0.02739,-0.09376 0.01445,0.11478 0,0 z"
         id="path2171"
         style="fill:#ae330e" /><path
         d="M 1.32277,5.29403 C 1.3348,4.6082 1.34684,3.92236 1.35888,3.23653 1.80276,3.23533 2.24817,3.20224 2.69068,3.23098 2.93356,3.256 3.12224,3.47757 3.35738,3.44376 3.61005,3.3313 3.78252,3.50656 3.81484,3.74468 3.98357,3.7222 4.14032,3.5384 4.33157,3.68474 4.57677,3.76943 4.77396,3.61157 4.97276,3.50126 5.19997,3.43445 5.40577,3.21004 5.65769,3.28376 5.88788,3.4531 6.1546,3.31201 6.40655,3.31393 6.63212,3.33617 6.88723,3.34732 7.08286,3.3066 7.18801,3.52167 7.12193,3.78334 7.13955,4.01832 7.12627,5.12928 7.10305,6.24027 7.08457,7.35124 6.59672,7.34712 6.10783,7.36272 5.62097,7.33559 5.46367,7.30245 5.87721,7.30156 5.67905,7.24323 5.48993,7.29722 5.09538,7.14117 5.47959,7.07933 5.6549,7.18643 5.66183,6.87859 5.69802,6.80407 5.53691,6.71237 5.28579,6.80824 5.13838,6.70191 5.2588,6.64629 5.38996,6.6725 5.40421,6.49534 5.45881,6.56547 5.60778,6.57557 5.48107,6.45359 5.42732,6.40595 5.23448,6.3309 5.42898,6.36456 5.60037,6.33627 5.73797,6.21186 5.49388,6.18754 5.48987,6.02614 5.25212,6.18099 5.24414,5.96654 5.23956,5.8151 5.17354,5.75892 5.36403,5.71649 5.48001,5.68668 5.63792,5.5626 5.45092,5.52231 5.34901,5.43272 5.24642,5.31524 5.15944,5.22471 5.26482,5.22745 5.43821,5.22134 5.28885,5.12738 5.24294,4.95571 5.36169,4.75332 5.12589,4.71346 5.03062,4.53606 4.68224,4.62693 4.48873,4.6349 4.18736,4.68483 3.87834,4.7052 3.58421,4.79104 3.44225,4.90037 3.5966,5.18891 3.47347,5.25765 3.31049,5.1879 3.46097,5.41141 3.30688,5.42566 3.42427,5.49926 3.53999,5.21344 3.60803,5.41793 3.5357,5.59914 3.26551,5.43051 3.19497,5.57856 3.30383,5.65823 3.50042,5.70769 3.55545,5.81475 3.48896,5.8946 3.28831,5.65493 3.38789,5.85502 3.45547,5.99835 3.50513,6.12366 3.6305,6.2128 3.57456,6.35436 3.23521,6.10987 3.40876,6.29356 3.4473,6.32135 3.70671,6.51123 3.54443,6.49776 3.29117,6.45921 3.66227,6.65059 3.44316,6.66374 3.19,6.67479 3.75594,6.82444 3.50688,6.86469 3.41778,6.82013 3.32839,7.01133 3.4589,6.98836 3.40358,7.11384 3.08766,7.02451 3.30135,7.20176 3.36432,7.3335 3.48565,7.35952 3.50651,7.211 3.6631,7.20833 3.93654,7.27941 4.00916,7.32591 3.77641,7.33248 3.57891,7.32568 3.35706,7.33217 3.17994,7.31969 2.88798,7.3649 2.66732,7.34937 2.20708,7.35143 1.74688,7.35079 1.28665,7.35152 1.29869,6.66569 1.31073,5.97986 1.32277,5.29403 l 0,0 z m 1.83715,2.0148 c -0.10563,-0.0245 -0.0535,0.04843 0,0 z M 2.99356,6.63731 c -0.06941,-0.10657 -0.0642,0.10295 0,0 z M 3.3997,6.12324 c -0.07647,-0.10855 -0.06107,0.06096 0,0 z M 3.42852,5.98947 c -0.10412,-0.15984 -0.0963,0.15442 0,0 z M 5.37648,5.87048 c 7.1e-4,-0.1064 -0.09721,0.09909 0,0 z M 5.58785,5.81534 c -0.1217,-0.05899 -0.00445,0.13602 0,0 z M 5.75911,5.56418 c -0.13136,-0.03319 -0.01294,0.1557 0,0 z M 5.36346,6.98927 C 5.19309,6.84757 5.68061,6.88209 5.42409,7.00443 L 5.4003,6.99871 5.36346,6.98927 l 0,0 z"
         id="path2169"
         style="fill:#8b1104" /><path
         d="M 1.32282,5.29086 C 1.33488,4.60389 1.34693,3.91692 1.35899,3.22995 1.65627,3.3016 1.96996,3.2437 2.27388,3.24923 2.38379,3.2567 2.51117,3.22576 2.61318,3.25068 2.72683,3.37226 2.82626,3.50982 2.87013,3.67318 3.04886,3.84147 3.37856,3.70324 3.53192,3.9237 3.7239,4.11657 4.01853,4.14769 4.274,4.13261 4.50063,4.18892 4.83107,4.18889 4.9416,3.94523 5.14598,3.86548 5.27006,3.65237 5.48272,3.60034 5.74351,3.47351 6.0172,3.39476 6.30032,3.34515 6.54847,3.31133 6.81922,3.43701 7.04743,3.30855 7.22167,3.4731 7.10849,3.77497 7.13997,3.99846 7.12646,5.11604 7.10318,6.23365 7.08457,7.35124 6.60135,7.34732 6.11699,7.36206 5.63484,7.33633 5.80289,7.34406 5.82322,7.25746 5.65491,7.20332 5.47618,7.16724 5.52802,7.17466 5.68212,7.16008 5.7915,7.09992 5.58981,6.96029 5.74096,6.86987 5.83329,6.77317 5.59511,6.70908 5.77312,6.65172 5.89199,6.61685 5.43383,6.66091 5.61211,6.51687 5.77243,6.48387 5.87346,6.4784 5.90556,6.30719 5.98816,6.26508 6.24555,6.25207 6.03124,6.1669 5.87812,6.0816 5.45492,6.26489 5.53815,5.98069 5.5508,5.88495 5.70137,5.81283 5.67233,5.76989 5.84519,5.79799 5.82764,5.52397 6.01643,5.53917 6.12665,5.30361 5.56564,5.51039 5.78852,5.3039 5.70162,5.31071 5.44902,5.23972 5.5674,5.17754 5.70534,5.21204 5.69198,5.06001 5.61865,4.99609 5.70113,4.89834 5.83618,4.69566 5.5948,4.74448 5.46368,4.75561 5.35704,4.7117 5.44108,4.6295 5.07503,4.6046 4.70677,4.56135 4.33998,4.62237 4.05316,4.64867 3.76508,4.69281 3.478,4.69253 3.28223,4.72114 3.15462,4.91294 3.0414,5.02468 3.14434,5.02579 3.32694,5.15494 3.10504,5.12665 2.99441,5.0731 2.86195,5.22058 3.05289,5.16672 3.16631,5.16238 3.38354,5.27913 3.17895,5.31784 3.19649,5.50408 2.99507,5.27255 3.05715,5.46894 2.94243,5.6041 2.75573,5.69156 2.57185,5.63655 2.42025,5.65788 2.87578,5.75271 2.75815,5.83371 2.64715,5.89391 2.56586,6.12806 2.77689,6.04418 2.93865,6.10597 3.15162,6.18151 3.28772,6.19558 3.19118,6.25041 2.77456,6.15947 3.02051,6.33692 3.118,6.3879 3.49637,6.42893 3.2401,6.54159 3.31449,6.56533 3.60528,6.60941 3.3573,6.64564 3.12102,6.72895 3.6186,6.73129 3.39481,6.85151 3.34746,7.04123 3.08756,6.85516 3.15297,7.10339 3.2585,7.17809 3.39514,7.32451 3.1904,7.33908 2.55576,7.35586 1.92121,7.34881 1.28665,7.35176 1.29871,6.66479 1.31076,5.97782 1.32282,5.29086 l 0,0 z m 1.86417,2.01571 c -0.17694,-0.01966 -0.08249,0.03446 0,0 z M 3.06146,7.01207 C 3.03984,6.74456 2.83624,7.2238 3.04974,7.06697 l 0.01172,-0.0549 0,0 z M 2.78804,7.03394 c -0.08123,-0.11158 -0.12769,0.08982 0,0 z M 5.86086,6.95527 c -0.19272,-0.06667 -0.08223,0.11715 0,0 z M 3.28028,6.75924 c -0.25901,-0.17989 0.16381,0.21753 0,0 z M 3.0367,6.65052 c 0.01776,-0.32641 -0.28524,0.17419 0,0 z M 2.90424,5.48401 C 3.07288,5.29307 2.61129,5.54056 2.85064,5.51418 l 0.02693,-0.01359 0.02668,-0.01658 -1e-5,0 z m 0.60767,1.78791 c 0.07315,-0.10656 0.06059,0.10295 0,0 z M 5.21137,6.69857 c 0.11808,-0.01942 -0.0158,0.0482 0,0 l 0,0 z M 5.44091,6.68861 c 0.33052,-0.01647 -0.20536,0.06944 0,0 z M 5.67254,6.34927 c 0.13452,-0.17035 0.14964,0.10175 0,0 z M 3.09706,6.08385 c 0.01169,-0.12577 0.07196,0.07838 0,0 z M 5.4198,5.94815 c 0.11268,-0.15342 0.05585,0.08632 0,0 z M 2.84725,5.92337 c 0.07315,-0.10657 0.06058,0.10294 0,0 z M 5.35999,5.77309 c 0.11807,-0.01941 -0.0158,0.04821 0,0 l 0,0 z"
         id="path2167"
         style="fill:#6e0702" /><path
         d="m 1.32266,5.30019 c 0.012,-0.68368 0.024,-1.36737 0.036,-2.05105 0.25013,0.08257 0.52881,-0.00675 0.77931,0.06368 0.25332,0.10599 0.37078,0.35236 0.32421,0.6303 0.08505,0.26077 0.47469,0.16808 0.69413,0.156 C 3.39567,4.01418 3.50571,4.3492 3.74818,4.31887 3.89263,4.4366 4.2959,4.26731 4.24985,4.52723 4.03471,4.65156 3.74721,4.59282 3.50367,4.63724 3.16505,4.66323 2.82993,4.73042 2.49079,4.7433 2.37217,4.87737 2.11698,4.75641 2.10881,4.95134 1.77417,5.02851 2.39387,5.13456 2.09334,5.26231 2.15601,5.34411 2.19624,5.55261 1.98972,5.57181 1.83847,5.74304 2.26619,5.72419 2.38597,5.74861 2.68561,5.81117 2.18681,5.88479 2.12141,5.98029 2.03384,6.15164 1.98064,5.99771 1.94056,5.88654 2.23553,5.86019 1.63034,5.75358 1.8088,5.96218 1.69428,6.01604 1.89375,6.05145 1.85161,6.15467 2.05115,6.18033 2.22927,6.26111 2.46282,6.25215 2.63297,6.35282 2.7979,6.38242 3.00524,6.41784 3.18211,6.45888 2.81465,6.51256 2.75896,6.50151 2.60033,6.43847 2.32503,6.4629 2.26393,6.58526 2.44161,6.69535 2.74691,6.49854 2.84633,6.66703 2.60954,6.65418 2.77589,6.93408 2.55723,6.96072 2.44778,7.05958 2.79109,7.08957 2.86748,7.08917 3.03582,7.11778 3.12689,7.24832 2.90974,7.29676 2.88863,7.3192 3.07766,7.33915 2.87665,7.33608 2.62306,7.34396 2.36723,7.31517 2.11718,7.30785 1.99902,7.39155 1.77308,7.33461 1.61234,7.35124 c -0.10856,0 -0.21711,0 -0.32568,0 0.012,-0.68368 0.024,-1.36736 0.036,-2.05105 l 0,0 z m 1.02875,1.7246 C 2.28104,6.95525 1.89592,7.0395 2.17701,7.05609 2.23029,7.05092 2.30996,7.06693 2.35141,7.02479 z M 1.78247,7.00749 c 7.1e-4,-0.10639 -0.09722,0.09909 0,0 z M 2.27689,6.74308 c -0.06941,-0.10657 -0.06419,0.10294 0,0 z M 2.3428,6.38182 c -0.13529,-0.02339 -0.02243,0.04339 0,0 z m 3.47793,0.9512 C 5.96205,7.27771 5.63266,7.13479 5.86323,7.18073 5.86203,7.37577 6.18615,7.16103 6.05631,7.12421 5.92879,7.08449 5.81624,7.07762 5.97197,6.98323 5.93884,6.83431 6.22239,6.89174 6.22589,7.00469 6.44211,7.00735 6.14766,6.92606 6.25592,6.8196 6.17288,6.75893 5.81588,6.72749 5.884,6.68197 6.04564,6.57802 6.20633,6.43966 6.42864,6.46102 6.39021,6.3945 6.19681,6.341 6.41006,6.32043 6.54586,6.21217 7.00725,6.38253 6.78844,6.11727 6.55109,6.07871 6.31778,6.19403 6.08481,6.10988 5.9128,6.17955 5.77315,5.96548 6.01548,5.99836 6.21697,6.09019 6.22449,5.92321 6.07667,5.83197 6.05025,5.71004 6.41755,5.82979 6.39972,5.60729 6.47475,5.56792 6.71936,5.5452 6.50462,5.50979 6.18208,5.57412 6.32321,5.17258 6.09955,5.0654 6.03049,4.95007 6.55421,5.04657 6.28325,4.87893 6.28257,4.87844 6.55841,4.80757 6.35252,4.77039 6.07581,4.83851 6.00308,4.5415 5.73434,4.59615 5.44096,4.57001 5.13271,4.58419 4.84949,4.5252 4.96877,4.30953 5.20475,4.18859 5.41566,4.07566 5.6429,4.00709 5.85333,3.88793 6.0275,3.71544 6.21436,3.56865 6.40791,3.37326 6.66857,3.397 6.8092,3.41118 6.95177,3.39465 7.06289,3.34876 7.21528,3.52391 7.11631,3.79789 7.14208,4.01565 7.12642,4.70296 7.13219,5.39126 7.08661,6.07788 7.05994,6.22567 7.12343,6.48644 7.09612,6.68716 7.09247,6.90851 7.0884,7.12988 7.08457,7.35124 6.66339,7.34582 6.24079,7.35655 5.82073,7.33302 l 0,0 z m 0.2652,-0.02573 c -0.13529,-0.02338 -0.02243,0.0434 0,0 z m 0.11856,0.00154 c -0.10565,-0.0245 -0.05351,0.04843 0,0 z M 6.31937,7.20581 c -0.13321,-0.2339 -0.09017,0.22257 0,0 z M 6.47031,6.90173 c -0.03242,-0.09815 -0.09372,0.07861 0,0 z M 6.48298,6.58442 c 0.07472,-0.16598 -0.15836,0.17343 0,0 z M 6.74387,6.39932 C 6.71143,6.3085 6.54972,6.46628 6.71644,6.418 L 6.74387,6.39932 z M 6.38065,5.97625 c 7.2e-4,-0.1064 -0.09722,0.09908 0,0 z M 6.55764,5.69666 c -0.07139,-0.15003 -0.17906,0.17766 0,0 z M 3.15496,7.24548 c 0.10892,-0.11209 0.16813,0.08999 0,0 z M 3.2007,6.61924 c 0.11808,-0.01942 -0.0158,0.0482 0,0 l 0,0 z M 6.00175,6.38586 C 5.89077,6.28382 6.239,6.41409 6.0393,6.40991 l -0.03755,-0.02405 0,0 z M 2.33168,5.1301 c 0.05369,-0.09439 0.10792,0.10085 0,0 z"
         id="path2165"
         style="fill:#500200" /><path
         d="M 1.54011,7.32727 C 1.61474,7.30432 1.86994,7.26377 1.63884,7.20162 1.54759,7.14054 1.82839,7.17451 1.87814,7.13599 2.02407,7.09145 2.22349,7.27796 2.19097,7.11367 2.31458,7.01819 2.62529,7.15949 2.3546,7.21601 2.16197,7.29894 1.8303,7.15907 1.75809,7.34974 1.68631,7.34939 1.6054,7.36077 1.54011,7.32727 z M 1.88717,7.32311 C 1.98257,7.28552 2.18806,7.37142 1.98101,7.34877 1.97854,7.34454 1.85668,7.36153 1.88717,7.32311 z M 6.2776,7.32265 C 6.44637,7.31923 6.57727,7.21819 6.63497,7.3248 6.69288,7.35212 6.22253,7.36156 6.2776,7.32265 z M 6.74097,7.31883 C 6.86997,7.27891 7.01074,7.32881 7.04338,7.17152 7.21552,7.31581 6.83892,7.37442 6.74097,7.31883 z M 1.28759,7.29836 c 0.07315,-0.10656 0.06059,0.10295 0,0 z M 1.32146,7.2544 C 1.14268,7.04025 1.64669,7.10992 1.43028,7.24693 1.39592,7.2513 1.35453,7.29169 1.32146,7.2544 z m 5.7247,-0.19402 c 0.04221,-0.2488 0.04715,0.24382 0,0 l 0,0 z M 1.59603,7.0864 c 0.157,-0.06089 0.00106,0.0972 0,0 z m 5.19684,0.0088 c 0.11809,-0.01942 -0.01579,0.0482 0,0 l 0,0 z M 6.58805,6.98105 c 0.1242,-0.10694 0.14054,0.10351 0,0 z M 6.85331,6.95182 c 0.14031,-0.09519 0.19051,0.08204 0,0 z M 7.02034,6.87643 C 6.97191,6.73057 7.19323,6.85031 7.04291,6.90622 l -0.02257,-0.02979 0,0 z M 2.01003,6.86384 C 1.87726,6.74879 1.63628,6.92706 1.44625,6.85577 1.23881,6.90356 1.27821,6.66005 1.46805,6.71047 1.66798,6.61159 1.83754,6.67608 2.00653,6.76883 2.16042,6.72286 2.26695,6.87576 2.05623,6.89957 2.03465,6.90354 2.008,6.88723 2.01003,6.86384 l 0,0 z M 7.03898,6.69019 C 6.99815,6.62544 6.8332,6.53019 7.00467,6.58326 7.15493,6.52225 7.10149,6.89652 7.03898,6.69019 z M 6.51342,6.70766 C 6.59062,6.55401 6.72193,6.66904 6.55362,6.74167 6.53079,6.74897 6.51108,6.72842 6.51342,6.70766 z M 2.04699,6.67187 c 0.17263,-0.01953 0.0032,0.04083 0,0 z M 1.44276,6.54476 C 1.21884,6.50686 1.33598,6.32198 1.52539,6.3597 1.68363,6.3398 1.88287,6.52999 1.61124,6.51674 1.55789,6.54 1.48813,6.63832 1.44276,6.54476 z M 2.11795,6.44693 c 0.16079,-0.06608 0.01523,0.12286 0,0 z M 1.79314,6.39932 C 1.6876,6.26235 2.08487,6.44222 2.02874,6.44848 1.94835,6.44756 1.85228,6.4664 1.79314,6.39932 z M 2.75255,6.4335 C 2.92447,6.41323 2.84515,6.46866 2.73758,6.43801 l 0.01497,-0.00451 0,0 z m 4.283,-0.06062 c 0.10128,-0.08814 0.03874,0.09245 0,0 z M 1.83564,6.24067 c 0.09294,-0.11345 0.01449,0.104 0,0 z M 1.31358,5.8176 c 0.07315,-0.10657 0.06059,0.10295 0,0 z M 6.95507,5.67934 C 6.75066,5.66096 7.04148,5.60932 6.92421,5.50723 7.01838,5.30749 6.47933,5.37351 6.79464,5.28086 6.88053,5.30496 7.14926,5.15634 7.1204,5.31179 7.11307,5.42796 7.13747,5.59028 6.98404,5.50213 6.91329,5.58051 7.13275,5.58074 7.08348,5.6485 7.21161,5.72704 6.98907,5.70141 6.95507,5.67934 l 0,0 z M 1.51898,5.42077 c 0.0293,-0.14032 0.21828,0.07219 0.02709,0.01917 l -0.02709,-0.01917 0,0 z M 1.3217,5.35486 c 0.15573,-0.17034 0.06092,0.1613 0,0 z M 6.90653,5.1367 C 6.70092,4.95105 7.22685,4.63557 7.12557,5.01552 7.11851,5.09518 7.15806,5.2222 7.03406,5.18299 6.98851,5.18179 6.93876,5.17072 6.90653,5.1367 l 0,0 z M 1.32587,5.11688 c 0.06941,-0.13769 0.05163,0.13274 0,0 z M 1.34466,4.04637 C 1.34899,3.79971 1.35332,3.55306 1.35765,3.3064 1.49666,3.3321 1.68453,3.29479 1.75653,3.44538 1.90847,3.59322 2.01213,3.79353 2.01314,4.0099 2.08444,4.14028 2.13944,4.34575 2.21654,4.4382 2.43976,4.44409 2.66728,4.41723 2.8868,4.45798 3.13946,4.67836 2.62897,4.62774 2.49648,4.64935 2.14153,4.67553 1.77853,4.67076 1.43174,4.76218 1.25904,4.79042 1.37298,4.43409 1.3413,4.29376 1.34203,4.2113 1.34323,4.12884 1.34466,4.04637 l 0,0 z M 7.06671,4.7081 c -0.09834,-0.08861 0.1854,-0.00616 0,0 z M 6.25965,4.57396 C 6.10737,4.54654 5.70596,4.58262 5.71574,4.46904 5.93603,4.36156 6.18203,4.27383 6.35947,4.09995 6.59683,3.88177 6.82303,3.64942 7.07391,3.44718 7.23047,3.55324 7.10843,3.89678 7.14172,4.09084 7.12144,4.29545 7.22217,4.6956 6.87723,4.59707 6.67109,4.59562 6.46525,4.58556 6.25965,4.57396 l 0,0 z"
         id="path2163"
         style="fill:#320000" /></g><path
       d="M 1.60928,0.45335 C 1.65193,0.85367 1.75145,1.37299 1.81315,1.73897 1.40898,1.79918 0.96811,1.88515 0.54879,1.92593 l 1.06049,-1.47258 0,0 z"
       id="_201469304"
       style="fill:#dddddd;stroke:#ffffff;stroke-width:0.14111" /><path
       d="M 0.62418,1.96276 C 0.82776,3.72944 1.15322,5.72897 0.32152,8.67346 3.00833,8.17813 4.71317,8.28727 7.30992,8.60248 7.74521,6.02074 7.82026,3.34895 7.39998,0.58709 5.99238,0.27568 3.77842,0.24339 1.68467,0.4902 l -1.06049,1.47256 0,0 z"
       id="_43077240"
       style="fill:none;stroke:#c8c8c8;stroke-width:0.11007" /><path
       d="M 1.68467,0.4902 C 1.73714,0.94566 1.80789,1.3724 1.88856,1.77581 1.47747,1.84985 1.05333,1.91217 0.62418,1.96276"
       id="_43075416"
       style="fill:none;stroke:#c8c8c8;stroke-width:0.11007" /></g><g
     transform="matrix(-0.1530631,0,0,-0.1530631,32.957774,18.394859)"
     id="The_Arrow"><g
       id="g101"><linearGradient
         x1="64"
         y1="-1.1782227"
         x2="63.999996"
         y2="99.457672"
         id="XMLID_4_"
         gradientUnits="userSpaceOnUse"><stop
           id="stop105"
           style="stop-color:#00008d;stop-opacity:1"
           offset="0" /><stop
           id="stop107"
           style="stop-color:#0053bd;stop-opacity:1"
           offset="1" /><midPointStop
           offset="0"
           style="stop-color:#00008D"
           id="midPointStop109" /><midPointStop
           offset="0.5"
           style="stop-color:#00008D"
           id="midPointStop111" /><midPointStop
           offset="1"
           style="stop-color:#0053BD"
           id="midPointStop113" /></linearGradient><path
         d="m 121.44922,65.81543 c -0.67481,-1.991211 -2.45899,-3.320313 -4.45801,-3.320313 l -16.6709,0 0,-41.946289 c 0,-6.175781 -4.730466,-11.1826171 -10.56738,-11.1826171 l -54.822266,0 c -5.836914,0 -10.567383,5.0068361 -10.567383,11.1826171 l 0,41.946289 -13.352539,0 c -1.9999998,0 -3.7851561,1.329102 -4.4599607,3.320313 -0.6748047,1.992187 -0.094727,4.219726 1.4501953,5.561523 L 60.989258,117.49219 c 1.749023,1.52246 4.270508,1.52051 6.019531,0 L 119.99902,71.376953 c 1.54493,-1.34375 2.125,-3.569336 1.4502,-5.561523 z"
         id="path116"
         style="fill:url(#XMLID_4_)" /><radialGradient
         cx="27.575684"
         cy="107.81738"
         r="115.48331"
         fx="27.575684"
         fy="107.81738"
         id="XMLID_5_"
         gradientUnits="userSpaceOnUse"
         gradientTransform="matrix(1,0,0,1.0565,0,-0.544571)"><stop
           id="stop120"
           style="stop-color:#ffffff;stop-opacity:1"
           offset="0" /><stop
           id="stop122"
           style="stop-color:#ddeeff;stop-opacity:1"
           offset="0.0571753" /><stop
           id="stop124"
           style="stop-color:#b5daff;stop-opacity:1"
           offset="0.13292681" /><stop
           id="stop126"
           style="stop-color:#9dceff;stop-opacity:1"
           offset="0.1933101" /><stop
           id="stop128"
           style="stop-color:#94caff;stop-opacity:1"
           offset="0.23033699" /><stop
           id="stop130"
           style="stop-color:#0b74ff;stop-opacity:1"
           offset="0.59550601" /><stop
           id="stop132"
           style="stop-color:#0035ed;stop-opacity:1"
           offset="0.81460702" /><midPointStop
           offset="0"
           style="stop-color:#FFFFFF"
           id="midPointStop134" /><midPointStop
           offset="0.4"
           style="stop-color:#FFFFFF"
           id="midPointStop136" /><midPointStop
           offset="0.230337"
           style="stop-color:#94CAFF"
           id="midPointStop138" /><midPointStop
           offset="0.5"
           style="stop-color:#94CAFF"
           id="midPointStop140" /><midPointStop
           offset="0.595506"
           style="stop-color:#0B74FF"
           id="midPointStop142" /><midPointStop
           offset="0.5"
           style="stop-color:#0B74FF"
           id="midPointStop144" /><midPointStop
           offset="0.814607"
           style="stop-color:#0035ED"
           id="midPointStop146" /></radialGradient><path
         d="m 95.583984,67.506836 c 0,-15.807129 0,-46.958008 0,-46.958008 0,-3.402344 -2.617187,-6.17041 -5.831054,-6.17041 l -54.822266,0 c -3.21582,0 -5.831055,2.768066 -5.831055,6.17041 0,0 0,33.134277 0,46.958008 l -18.088867,0 52.988281,46.115234 52.992187,-46.115234 -21.407226,0 z"
         id="path149"
         style="fill:url(#XMLID_5_)" /><linearGradient
         x1="62.342285"
         y1="8.8261719"
         x2="62.342281"
         y2="61.276535"
         id="XMLID_6_"
         gradientUnits="userSpaceOnUse"><stop
           id="stop153"
           style="stop-color:#ffffff;stop-opacity:1"
           offset="0" /><stop
           id="stop155"
           style="stop-color:#74aeff;stop-opacity:1"
           offset="1" /><midPointStop
           offset="0"
           style="stop-color:#FFFFFF"
           id="midPointStop157" /><midPointStop
           offset="0.5"
           style="stop-color:#FFFFFF"
           id="midPointStop159" /><midPointStop
           offset="1"
           style="stop-color:#74AEFF"
           id="midPointStop161" /></linearGradient><path
         d="M 51.40918,61.350586 C 65.807617,53.766113 78.779297,45.339844 93.786133,42.545898 l 0,-22.66455 c 0,-1.986328 -1.809571,-3.602539 -4.033203,-3.602539 l -54.822266,0 c -2.223633,0 -4.032226,1.61621 -4.032226,3.602539 l 0,40.956543 c 6.625,3.027832 13.822265,3.919433 20.510742,0.512695 z"
         id="path164"
         style="fill:url(#XMLID_6_)" /></g></g></svg>